<svg xmlns="http://www.w3.org/2000/svg" width="1740" height="600" viewBox="0 0 1740 600"><rect x="0" y="0" width="1740" height="600" fill="#ffffff"/>
<rect x="32" y="100" width="1672" height="116" fill="rgba(100,116,139,0.07)" stroke="rgba(100,116,139,0.18)" stroke-width="1"/>
<text x="44" y="158" transform="rotate(-90 44 158)" text-anchor="middle" font-family="Arial, Helvetica, 'Liberation Sans', sans-serif" font-size="11" font-weight="700" letter-spacing="1.5" fill="#94a3b8">ORGANISER</text>
<rect x="32" y="216" width="1672" height="232" fill="rgba(100,116,139,0.02)" stroke="rgba(100,116,139,0.18)" stroke-width="1"/>
<text x="44" y="332" transform="rotate(-90 44 332)" text-anchor="middle" font-family="Arial, Helvetica, 'Liberation Sans', sans-serif" font-size="11" font-weight="700" letter-spacing="1.5" fill="#94a3b8">PLATFORM</text>
<rect x="32" y="448" width="1672" height="116" fill="rgba(100,116,139,0.07)" stroke="rgba(100,116,139,0.18)" stroke-width="1"/>
<text x="44" y="506" transform="rotate(-90 44 506)" text-anchor="middle" font-family="Arial, Helvetica, 'Liberation Sans', sans-serif" font-size="11" font-weight="700" letter-spacing="1.5" fill="#94a3b8">ATTENDEE</text>
<text x="36" y="50" font-family="Arial, Helvetica, 'Liberation Sans', sans-serif" font-size="19" font-weight="700" fill="#0f172a">Event publishing</text>
<text x="36" y="70" font-family="Arial, Helvetica, 'Liberation Sans', sans-serif" font-size="12.5" fill="#64748b">flowkit sample 03 — swimlanes, light theme</text>
<defs><marker id="arr-64748b" viewBox="0 0 10 10" refX="8.5" refY="5" markerWidth="7.5" markerHeight="7.5" orient="auto-start-reverse"><path d="M 0 1 L 9 5 L 0 9 z" fill="#64748b"/></marker></defs>
<path d="M 268 151 L 293 151 Q 300 151 300 158 L 300 267 Q 300 274 307 274 L 332 274" fill="none" stroke="#64748b" stroke-width="1.6" marker-end="url(#arr-64748b)"/>
<path d="M 502 274 L 566 274" fill="none" stroke="#64748b" stroke-width="1.6" marker-end="url(#arr-64748b)"/>
<path d="M 736 274 L 765 274 Q 768 274 768 271 L 768 270 Q 768 267 771 267 L 800 267" fill="none" stroke="#64748b" stroke-width="1.6" marker-end="url(#arr-64748b)"/>
<path d="M 651 309 L 651 355" fill="none" stroke="#64748b" stroke-width="1.6" marker-end="url(#arr-64748b)"/>
<path d="M 736 390 L 761 390 Q 768 390 768 383 L 768 288 Q 768 281 775 281 L 800 281" fill="none" stroke="#64748b" stroke-width="1.6" marker-end="url(#arr-64748b)"/>
<path d="M 566 390 L 502 390" fill="none" stroke="#64748b" stroke-width="1.6" marker-end="url(#arr-64748b)"/>
<path d="M 332 390 L 315 390 Q 308 390 308 383 L 308 172 Q 308 165 301 165 L 268 165" fill="none" stroke="#64748b" stroke-width="1.6" stroke-dasharray="7 5" marker-end="url(#arr-64748b)"/>
<path d="M 970 274 L 1034 274" fill="none" stroke="#64748b" stroke-width="1.6" marker-end="url(#arr-64748b)"/>
<path d="M 1204 274 L 1229 274 Q 1236 274 1236 281 L 1236 499 Q 1236 506 1243 506 L 1268 506" fill="none" stroke="#64748b" stroke-width="1.6" marker-end="url(#arr-64748b)"/>
<path d="M 1438 506 L 1502 506" fill="none" stroke="#64748b" stroke-width="1.6" marker-end="url(#arr-64748b)"/>
<polygon points="116,123 268,123 250,193 98,193" fill="#e0f2fe" stroke="#0284c7" stroke-width="1.5" stroke-linejoin="round"/>
<text x="183" y="160.55" text-anchor="middle" font-family="Arial, Helvetica, 'Liberation Sans', sans-serif" font-size="13" font-weight="600" fill="#0c4a6e">Submit event form</text>
<rect x="332" y="239" width="170" height="70" rx="6" fill="#f1f5f9" stroke="#475569" stroke-width="1.5"/>
<text x="417" y="270.05" text-anchor="middle" font-family="Arial, Helvetica, 'Liberation Sans', sans-serif" font-size="13" font-weight="600" fill="#1e293b">Auto-checks</text>
<text x="417" y="288.05" text-anchor="middle" font-family="Arial, Helvetica, 'Liberation Sans', sans-serif" font-size="10.5" fill="#1e293b" fill-opacity="0.7">dates, venue, duplicates</text>
<polygon points="651,239 736,274 651,309 566,274" fill="#f1f5f9" stroke="#475569" stroke-width="1.5" stroke-linejoin="round"/>
<text x="651" y="276.55" text-anchor="middle" font-family="Arial, Helvetica, 'Liberation Sans', sans-serif" font-size="13" font-weight="600" fill="#1e293b">Passes?</text>
<rect x="566" y="355" width="170" height="70" rx="6" fill="#fef3c7" stroke="#d97706" stroke-width="1.5"/>
<text x="651" y="392.55" text-anchor="middle" font-family="Arial, Helvetica, 'Liberation Sans', sans-serif" font-size="13" font-weight="600" fill="#78350f">Manual review</text>
<polygon points="350,355 502,355 484,425 332,425" fill="#fee2e2" stroke="#dc2626" stroke-width="1.5" stroke-linejoin="round"/>
<text x="417" y="392.55" text-anchor="middle" font-family="Arial, Helvetica, 'Liberation Sans', sans-serif" font-size="13" font-weight="600" fill="#7f1d1d">Rejection email</text>
<rect x="800" y="239" width="170" height="70" rx="6" fill="#d1fae5" stroke="#059669" stroke-width="1.5"/>
<text x="885" y="276.55" text-anchor="middle" font-family="Arial, Helvetica, 'Liberation Sans', sans-serif" font-size="13" font-weight="600" fill="#064e3b">Publish listing</text>
<rect x="1034" y="239" width="170" height="70" rx="6" fill="#f1f5f9" stroke="#475569" stroke-width="1.5"/>
<text x="1119" y="270.05" text-anchor="middle" font-family="Arial, Helvetica, 'Liberation Sans', sans-serif" font-size="13" font-weight="600" fill="#1e293b">Notify mailing list</text>
<text x="1119" y="288.05" text-anchor="middle" font-family="Arial, Helvetica, 'Liberation Sans', sans-serif" font-size="10.5" fill="#1e293b" fill-opacity="0.7">segment: local events</text>
<polygon points="1286,471 1438,471 1420,541 1268,541" fill="#f1f5f9" stroke="#475569" stroke-width="1.5" stroke-linejoin="round"/>
<text x="1353" y="508.55" text-anchor="middle" font-family="Arial, Helvetica, 'Liberation Sans', sans-serif" font-size="13" font-weight="600" fill="#1e293b">Book / RSVP</text>
<rect x="1502" y="471" width="170" height="70" rx="6" fill="#d1fae5" stroke="#059669" stroke-width="1.5"/>
<text x="1587" y="502.05" text-anchor="middle" font-family="Arial, Helvetica, 'Liberation Sans', sans-serif" font-size="13" font-weight="600" fill="#064e3b">Confirmation</text>
<text x="1587" y="520.05" text-anchor="middle" font-family="Arial, Helvetica, 'Liberation Sans', sans-serif" font-size="10.5" fill="#064e3b" fill-opacity="0.7">email + calendar invite</text>
<rect x="741.51618" y="264.25" width="32.96764" height="19.5" rx="9.75" fill="#ffffff" fill-opacity="0.95" stroke="#64748b" stroke-opacity="0.35" stroke-width="1"/><text x="758" y="278.14" text-anchor="middle" font-family="Arial, Helvetica, 'Liberation Sans', sans-serif" font-size="11.5" font-weight="700" fill="#334155">yes</text>
<rect x="637.22236" y="321.25" width="27.555280000000003" height="19.5" rx="9.75" fill="#ffffff" fill-opacity="0.95" stroke="#64748b" stroke-opacity="0.35" stroke-width="1"/><text x="651" y="335.14" text-anchor="middle" font-family="Arial, Helvetica, 'Liberation Sans', sans-serif" font-size="11.5" font-weight="700" fill="#334155">no</text>
<rect x="735.589945" y="325.75" width="64.82011" height="19.5" rx="9.75" fill="#ffffff" fill-opacity="0.95" stroke="#64748b" stroke-opacity="0.35" stroke-width="1"/><text x="768" y="339.64" text-anchor="middle" font-family="Arial, Helvetica, 'Liberation Sans', sans-serif" font-size="11.5" font-weight="700" fill="#334155">approved</text>
<rect x="505.320085" y="380.25" width="57.359829999999995" height="19.5" rx="9.75" fill="#ffffff" fill-opacity="0.95" stroke="#64748b" stroke-opacity="0.35" stroke-width="1"/><text x="534" y="394.14" text-anchor="middle" font-family="Arial, Helvetica, 'Liberation Sans', sans-serif" font-size="11.5" font-weight="700" fill="#334155">rejected</text>
<rect x="266.082585" y="380.25" width="87.83483000000001" height="19.5" rx="9.75" fill="#ffffff" fill-opacity="0.95" stroke="#64748b" stroke-opacity="0.35" stroke-width="1"/><text x="310" y="394.14" text-anchor="middle" font-family="Arial, Helvetica, 'Liberation Sans', sans-serif" font-size="11.5" font-weight="700" fill="#334155">fix &amp; resubmit</text>
<rect x="1203.602135" y="380.25" width="64.79572999999999" height="19.5" rx="9.75" fill="#ffffff" fill-opacity="0.95" stroke="#64748b" stroke-opacity="0.35" stroke-width="1"/><text x="1236" y="394.14" text-anchor="middle" font-family="Arial, Helvetica, 'Liberation Sans', sans-serif" font-size="11.5" font-weight="700" fill="#334155">email link</text></svg>